<?xml version="1.0" encoding="iso-8859-1"?>
<!-- Generator: Adobe Illustrator 18.1.1, SVG Export Plug-In . SVG Version: 6.00 Build 0)  -->
<svg version="1.1" id="Capa_1" xmlns="http://www.w3.org/2000/svg" xmlns:xlink="http://www.w3.org/1999/xlink" x="0px" y="0px"
	 viewBox="0 0 21.411 21.411" style="enable-background:new 0 0 21.411 21.411;" xml:space="preserve">
<g>
	<g>
		<path style="fill:#010002;" d="M15.736,17.387c-0.138-0.043-0.278-0.086-0.42-0.131c0.071-0.306,0.139-0.641,0.199-0.994
			c0.293-0.2,0.586-0.407,0.874-0.62c0.015,0.184,0.025,0.36,0.034,0.535C16.198,16.61,15.97,17.019,15.736,17.387L15.736,17.387z
			 M7.883,3.646C8.05,3.517,8.217,3.397,8.38,3.282c0.007-0.085,0.015-0.165,0.023-0.243c0.163-0.063,0.324-0.125,0.483-0.182
			c0.191,0.252,0.411,0.566,0.65,0.93C9.46,3.866,9.384,3.947,9.307,4.03c-0.258,0.088-0.52,0.18-0.781,0.273
			c0.03-0.283,0.063-0.546,0.1-0.783C8.525,3.682,8.423,3.854,8.319,4.034C8.14,4.04,7.961,4.047,7.784,4.054
			C7.816,3.911,7.849,3.775,7.883,3.646L7.883,3.646z M21.29,10.549c-0.256,0.311-0.555,0.64-0.891,0.983
			c-0.006,0.206-0.014,0.414-0.021,0.619c-0.127,0.179-0.258,0.357-0.396,0.539c-0.131-0.537-0.279-1.095-0.451-1.664
			c-0.191-0.303-0.396-0.612-0.613-0.926c-0.506-0.126-1.055-0.254-1.633-0.386c-0.17-0.164-0.346-0.327-0.524-0.492
			c-0.086,0.052-0.17,0.103-0.256,0.154c0.135,0.326,0.267,0.652,0.392,0.979c0.195-0.106,0.389-0.213,0.575-0.317
			c0.254,0.218,0.499,0.433,0.734,0.643c-0.696,0.487-1.464,0.999-2.273,1.516c-0.385-0.845-0.808-1.726-1.253-2.601
			c-0.092,0.014-0.184,0.029-0.275,0.044c0.457,1.042,0.897,2.093,1.279,3.09c0.422-0.213,0.832-0.426,1.229-0.635
			c-0.135,0.471-0.281,0.94-0.436,1.399c-0.42,0.394-0.854,0.782-1.291,1.161c0.021,0.533,0.032,1.043,0.03,1.514
			c-0.243,0.167-0.485,0.329-0.729,0.486c-0.498,0.668-0.99,1.246-1.457,1.693c-0.392,0.051-0.781,0.098-1.168,0.143
			c-0.291-0.456-0.637-1.079-1.013-1.819c0.089-0.339,0.185-0.7,0.28-1.084c-0.237-0.666-0.488-1.394-0.742-2.149
			c-0.851,0.052-1.693,0.097-2.516,0.134c-0.476-0.448-0.946-0.905-1.404-1.364c0.06-0.736,0.135-1.488,0.222-2.236
			c0.447-0.558,0.909-1.116,1.373-1.664c0.876-0.162,1.771-0.319,2.66-0.468c0.056,0.229,0.111,0.46,0.167,0.692
			c0.365,0.233,0.73,0.471,1.098,0.709c0.141-0.195,0.277-0.389,0.414-0.579c0.557,0.144,1.107,0.29,1.649,0.437
			c0.138-0.084,0.274-0.167,0.411-0.249c0.056-0.204,0.107-0.405,0.16-0.604c-0.366-0.068-0.739-0.138-1.115-0.206
			c-0.127-0.207-0.255-0.414-0.382-0.618c-0.091-0.043-0.181-0.087-0.269-0.132c-0.07,0.253-0.142,0.511-0.216,0.772
			c-0.172-0.21-0.343-0.417-0.515-0.622c0.009-0.17,0.018-0.338,0.023-0.504c-0.225-0.169-0.449-0.334-0.67-0.496
			c-0.134-0.062-0.266-0.123-0.397-0.183c0.013,0.159,0.022,0.321,0.036,0.485c0.277,0.176,0.558,0.355,0.839,0.538
			c-0.142,0.156-0.285,0.316-0.431,0.479c-0.205-0.261-0.408-0.517-0.607-0.767c-0.145-0.157-0.287-0.312-0.43-0.464
			C10.155,6.682,9.82,6.841,9.485,7.001C9.245,7.347,9.002,7.703,8.76,8.066c-0.354-0.05-0.704-0.098-1.051-0.145
			C7.704,7.49,7.702,7.069,7.706,6.666c0.437,0.018,0.879,0.038,1.327,0.062c-0.134-0.212-0.266-0.42-0.396-0.622
			C8.561,5.941,8.486,5.779,8.412,5.623C8.746,5.521,9.081,5.42,9.414,5.324C9.604,5.111,9.79,4.906,9.975,4.71
			c0.146-0.009,0.293-0.019,0.438-0.028c-0.028-0.109-0.057-0.216-0.085-0.319c0.096-0.098,0.188-0.19,0.28-0.283
			c0.07,0.152,0.141,0.311,0.212,0.476c0.406,0.008,0.812,0.02,1.216,0.033c0.104-0.23,0.201-0.448,0.296-0.652
			c0.153,0.04,0.308,0.081,0.462,0.121c-0.064-0.144-0.128-0.281-0.191-0.412c0.225-0.046,0.442-0.09,0.66-0.132
			c-0.079-0.059-0.158-0.115-0.236-0.17c-0.193,0.031-0.392,0.065-0.592,0.1c-0.084-0.116-0.166-0.226-0.248-0.33
			c-0.011,0-0.021-0.001-0.031-0.001c0.004-0.008,0.008-0.015,0.013-0.023c-0.033-0.043-0.068-0.085-0.103-0.124
			c0.075-0.031,0.15-0.062,0.224-0.09c0.059-0.1,0.106-0.174,0.159-0.255c-0.072-0.006-0.146-0.013-0.219-0.019
			c-0.104,0.063-0.211,0.135-0.32,0.21c-0.088,0.114-0.18,0.243-0.276,0.381c0.12,0.079,0.241,0.159,0.362,0.243
			c-0.1,0.204-0.204,0.43-0.316,0.672c-0.181,0.052-0.363,0.104-0.548,0.158c-0.104-0.251-0.207-0.484-0.306-0.699
			c-0.207,0.081-0.419,0.164-0.632,0.252c-0.099-0.044-0.196-0.085-0.293-0.127c0.022-0.213,0.046-0.41,0.07-0.585
			c0.178-0.082,0.352-0.157,0.522-0.228c0.146-0.187,0.286-0.341,0.416-0.46c0.33-0.067,0.647-0.122,0.949-0.167
			c0.768,0.035,1.568,0.091,2.379,0.159c1.125-0.038,2.487-0.087,3.088-0.116C15.505,0.862,13.211,0,10.714,0
			C8.166,0,5.829,0.894,3.991,2.38C4.114,2.397,4.236,2.415,4.36,2.434c0.073,0.183,0.156,0.381,0.254,0.603
			C4.646,3.15,4.681,3.271,4.719,3.396C4.525,3.581,4.334,3.781,4.148,3.994C4.109,4.099,4.071,4.205,4.034,4.315
			c-0.142,0.08-0.28,0.162-0.418,0.244c-0.09,0.299-0.173,0.615-0.25,0.943C3.197,5.478,3.03,5.455,2.869,5.433
			c-0.113-0.654-0.178-1.216-0.23-1.742c-0.497,0.571-0.94,1.191-1.309,1.86C1.385,5.505,1.436,5.46,1.492,5.415
			c0.143,0.723,0.315,1.516,0.549,2.379c-0.47,0.303-0.892,0.604-1.256,0.894c-0.265,0.245-0.493,0.486-0.69,0.717
			c-0.051,0.426-0.086,0.859-0.086,1.299c0,0.913,0.127,1.795,0.341,2.642c0.19,0.069,0.397,0.137,0.627,0.204
			c0.35,0.4,0.749,0.806,1.188,1.207c0.096,0.287,0.198,0.569,0.305,0.847c0.57,0.354,1.193,0.698,1.842,1.021
			c-0.196,0.607-0.347,1.137-0.46,1.594c-0.253,0.008-0.498,0.014-0.74,0.018c1.938,1.959,4.628,3.174,7.603,3.174
			c5.812,0,10.532-4.637,10.688-10.411C21.362,10.849,21.332,10.702,21.29,10.549z"/>
	</g>
</g>
<g>
</g>
<g>
</g>
<g>
</g>
<g>
</g>
<g>
</g>
<g>
</g>
<g>
</g>
<g>
</g>
<g>
</g>
<g>
</g>
<g>
</g>
<g>
</g>
<g>
</g>
<g>
</g>
<g>
</g>
</svg>
