<?xml version="1.0" encoding="iso-8859-1"?>
<!-- Generator: Adobe Illustrator 18.1.1, SVG Export Plug-In . SVG Version: 6.00 Build 0)  -->
<svg version="1.1" id="Capa_1" xmlns="http://www.w3.org/2000/svg" xmlns:xlink="http://www.w3.org/1999/xlink" x="0px" y="0px"
	 viewBox="0 0 25.731 25.731" style="enable-background:new 0 0 25.731 25.731;" xml:space="preserve">
<g>
	<path style="fill:#030104;" d="M19.418,13.068c-3.486,0-6.313,2.826-6.313,6.313s2.826,6.313,6.313,6.313s6.313-2.826,6.313-6.313
		S22.904,13.068,19.418,13.068z M22.901,20.278h-6.978v-1.793h6.978V20.278z"/>
	<g>
		<path style="fill:#030104;" d="M11.606,19.38c0-1.791,0.609-3.438,1.624-4.756c-0.151-0.352-0.21-0.891,0.063-1.734h-0.008
			c1.555-1.625,2.586-4.242,2.586-6.818c0-3.959-2.438-6.035-5.452-6.035c-3.017,0-5.438,2.076-5.438,6.035
			c0,2.586,1.024,5.213,2.588,6.836c0.609,1.623-0.48,2.225-0.709,2.311C3.704,16.377,0,18.49,0,20.576c0,0.563,0,0.223,0,0.781
			c0,2.842,5.427,3.488,10.45,3.488c1.102,0,2.216-0.033,3.289-0.111C12.42,23.334,11.606,21.454,11.606,19.38z"/>
	</g>
</g>
<g>
</g>
<g>
</g>
<g>
</g>
<g>
</g>
<g>
</g>
<g>
</g>
<g>
</g>
<g>
</g>
<g>
</g>
<g>
</g>
<g>
</g>
<g>
</g>
<g>
</g>
<g>
</g>
<g>
</g>
</svg>
