<?xml version="1.0" encoding="iso-8859-1"?>
<!-- Generator: Adobe Illustrator 18.1.1, SVG Export Plug-In . SVG Version: 6.00 Build 0)  -->
<svg version="1.1" id="Capa_1" xmlns="http://www.w3.org/2000/svg" xmlns:xlink="http://www.w3.org/1999/xlink" x="0px" y="0px"
	 viewBox="0 0 612 612" style="enable-background:new 0 0 612 612;" xml:space="preserve">
<g>
	<path d="M509.833,0c-53.68,0-97.353,43.673-97.353,97.353c0,53.683,43.673,97.356,97.353,97.356
		c53.683,0,97.356-43.673,97.356-97.356C607.192,43.673,563.519,0,509.833,0z M541.092,112.035h-31.259
		c-8.11,0-14.681-6.571-14.681-14.681V47.185c0-8.11,6.571-14.681,14.681-14.681c8.11,0,14.681,6.571,14.681,14.681v35.487h16.578
		c8.11,0,14.681,6.571,14.681,14.681S549.202,112.035,541.092,112.035z M562.066,496.442c-1.283-10.145-6.439-19.185-14.52-25.451
		L404.343,359.943c-6.777-5.256-14.884-8.033-23.449-8.033c-0.81,0-1.603,0.088-2.405,0.135c-0.294-0.006-0.581-0.038-0.875-0.038
		c-2.625,0-5.262,0.273-7.843,0.81l-139.556,29.101l-8.638-39.478c3.353,0.945,6.847,1.456,10.418,1.456h0.003
		c0.041,0,0.079-0.006,0.117-0.006c1.177,0.112,2.364,0.179,3.562,0.185l97.941,0.279c0.015,0,0.088,0,0.103,0c0,0,0,0,0.003,0
		c21.053,0,38.23-17.127,38.288-38.18c0.021-7.109-1.926-13.909-5.511-19.843l39.595-82.951c3.491-7.317,0.391-16.082-6.924-19.576
		c-7.329-3.488-16.085-0.393-19.576,6.924l-37.258,78.054c-2.763-0.634-5.605-0.998-8.506-1.004l-86.04-0.244l-59.177-57.714
		c-2.484-2.422-5.256-4.44-8.213-6.081c-6.565-4.633-14.505-7.346-22.914-7.346c-2.869,0-5.749,0.311-8.565,0.928
		c-10.427,2.279-19.338,8.486-25.099,17.471c-5.758,8.985-7.672,19.673-5.391,30.099l41.468,189.498
		c2.29,10.453,8.685,19.244,17.23,24.846c-24.203-6.363-44.81-23.971-54.206-48.571L33.211,175.847
		c-2.895-7.575-11.381-11.375-18.953-8.477c-7.575,2.892-11.369,11.381-8.477,18.953l89.716,234.822
		c16.325,42.728,57.315,70.073,101.775,70.073c6.357,0,12.79-0.558,19.229-1.712c0.247-0.047,0.493-0.094,0.737-0.153
		l138.138-32.122l30.519,125.521C390.082,599.973,405.371,612,423.077,612c3.045,0,6.096-0.367,9.067-1.089
		c9.939-2.414,18.34-8.556,23.66-17.294c5.32-8.735,6.915-19.021,4.498-28.957l-19.3-79.384l59.617,46.231
		c6.777,5.253,14.881,8.031,23.443,8.031h0.003c11.93,0,22.964-5.406,30.272-14.828C560.603,516.629,563.349,506.59,562.066,496.442
		z M333.721,329.667L333.721,329.667v0.003V329.667z M118.302,156.313c-9.396-11.034-13.932-25.067-12.778-39.513
		c2.358-29.442,28.564-52.147,58.419-49.748c14.446,1.157,27.577,7.872,36.973,18.903c9.396,11.031,13.932,25.067,12.778,39.513
		c-2.246,27.994-25.983,49.925-54.038,49.925c-1.451,0-2.91-0.059-4.378-0.176C140.829,174.062,127.698,167.347,118.302,156.313z"/>
</g>
<g>
</g>
<g>
</g>
<g>
</g>
<g>
</g>
<g>
</g>
<g>
</g>
<g>
</g>
<g>
</g>
<g>
</g>
<g>
</g>
<g>
</g>
<g>
</g>
<g>
</g>
<g>
</g>
<g>
</g>
</svg>
